<svg xmlns="http://www.w3.org/2000/svg" width="24" height="24" fill="none"><path fill="#141414" fill-rule="evenodd" d="M11.998 1a11.28 11.28 0 0 0-3.563 21.98c.563.104.769-.244.769-.544 0-.267-.01-.976-.015-1.917-3.138.68-3.8-1.512-3.8-1.512a2.987 2.987 0 0 0-1.252-1.65c-1.024-.7.078-.686.078-.686a2.369 2.369 0 0 1 1.73 1.163 2.404 2.404 0 0 0 3.283.937 2.41 2.41 0 0 1 .716-1.508c-2.507-.285-5.138-1.252-5.138-5.574a4.362 4.362 0 0 1 1.161-3.027 4.06 4.06 0 0 1 .11-2.984s.948-.304 3.102 1.156c1.848-.507 3.8-.507 5.648 0 2.152-1.46 3.098-1.156 3.098-1.156.416.944.456 2.011.112 2.984a4.353 4.353 0 0 1 1.16 3.027c0 4.333-2.637 5.286-5.15 5.565a2.694 2.694 0 0 1 .766 2.089c0 1.507-.014 2.724-.014 3.093 0 .302.203.653.775.543A11.28 11.28 0 0 0 11.998 1Z" clip-rule="evenodd"/></svg>